<svg width="14" height="26" viewBox="0 0 14 26" fill="none" xmlns="http://www.w3.org/2000/svg">
<g clip-path="url(#clip0)">
<rect width="1920" height="4008" transform="translate(-830 -1904)" fill="white"/>
<rect x="-32.5" y="-141.5" width="315" height="377" rx="5.5" fill="white" stroke="#E7E7E7"/>
<path d="M11.2227 -22.0547C11.2227 -21.5024 10.7749 -21.0547 10.2227 -21.0547H6.64258C6.68815 -19.7148 7.04362 -18.7077 7.70898 -18.0332C8.38346 -17.3587 9.42708 -17.0215 10.8398 -17.0215C11.7969 -17.0215 12.6628 -17.1628 13.4375 -17.4453L13.9297 -14.1367C12.7995 -13.8724 11.6328 -13.7402 10.4297 -13.7402C8.03255 -13.7402 6.13216 -14.3828 4.72852 -15.668C3.33398 -16.9622 2.60026 -18.7578 2.52734 -21.0547H1.2168C0.664512 -21.0547 0.216797 -21.5024 0.216797 -22.0547V-22.1328C0.216797 -22.6851 0.664512 -23.1328 1.2168 -23.1328H2.52734V-24.8281H1.2168C0.664512 -24.8281 0.216797 -25.2758 0.216797 -25.8281V-25.9062C0.216797 -26.4585 0.664512 -26.9062 1.2168 -26.9062H2.55469C2.70964 -29.2031 3.50716 -30.985 4.94727 -32.252C6.39648 -33.528 8.3151 -34.166 10.7031 -34.166C11.6602 -34.166 12.7357 -34.0247 13.9297 -33.7422L13.4375 -30.4199C12.5807 -30.7116 11.7376 -30.8574 10.9082 -30.8574C8.32878 -30.8574 6.91602 -29.5404 6.66992 -26.9062H10.2227C10.7749 -26.9062 11.2227 -26.4585 11.2227 -25.9062V-25.8281C11.2227 -25.2758 10.7749 -24.8281 10.2227 -24.8281H6.64258V-23.1328H10.2227C10.7749 -23.1328 11.2227 -22.6851 11.2227 -22.1328V-22.0547Z" fill="#C4C4C4"/>
<path d="M9.80078 17.7637C9.80078 17.0163 9.59115 16.4238 9.17188 15.9863C8.76172 15.5397 8.0599 15.1296 7.06641 14.7559C6.07292 14.3822 5.21615 14.013 4.49609 13.6484C3.77604 13.2747 3.15625 12.8509 2.63672 12.377C2.1263 11.8939 1.72526 11.3288 1.43359 10.6816C1.15104 10.0345 1.00977 9.26432 1.00977 8.37109C1.00977 6.83073 1.50195 5.56836 2.48633 4.58398C3.4707 3.59961 4.77865 3.02539 6.41016 2.86133V0.935547C6.41016 0.383263 6.85787 -0.0644531 7.41016 -0.0644531H7.59766C8.14994 -0.0644531 8.59766 0.383263 8.59766 0.935547V2.90234C10.2109 3.13021 11.4733 3.80469 12.3848 4.92578C13.2962 6.03776 13.752 7.48242 13.752 9.25977H9.80078C9.80078 8.16602 9.57292 7.35026 9.11719 6.8125C8.67057 6.26562 8.06901 5.99219 7.3125 5.99219C6.5651 5.99219 5.98633 6.20638 5.57617 6.63477C5.16602 7.05404 4.96094 7.63737 4.96094 8.38477C4.96094 9.07747 5.16146 9.63346 5.5625 10.0527C5.96354 10.472 6.70638 10.9004 7.79102 11.3379C8.88477 11.7754 9.78255 12.1901 10.4844 12.582C11.1862 12.9648 11.7786 13.4023 12.2617 13.8945C12.7448 14.3776 13.1139 14.9336 13.3691 15.5625C13.6243 16.1823 13.752 16.9069 13.752 17.7363C13.752 19.2858 13.2689 20.5436 12.3027 21.5098C11.3366 22.4759 10.0059 23.0456 8.31055 23.2188V24.9395C8.31055 25.4917 7.86283 25.9395 7.31055 25.9395H7.13672C6.58443 25.9395 6.13672 25.4917 6.13672 24.9395V23.2324C4.26823 23.0319 2.81901 22.3711 1.78906 21.25C0.95691 20.3287 0.46393 19.1621 0.310123 17.7502C0.250313 17.2011 0.705528 16.752 1.25781 16.752H3.20898C3.76127 16.752 4.19301 17.204 4.29297 17.7472C4.40604 18.3615 4.63325 18.8638 4.97461 19.2539C5.49414 19.8281 6.23698 20.1152 7.20312 20.1152C8.00521 20.1152 8.63867 19.9056 9.10352 19.4863C9.56836 19.0579 9.80078 18.4837 9.80078 17.7637Z" fill="#C4C4C4"/>
<path d="M6.71094 52.125L6.79297 54.0254C6.79297 55.1465 6.51042 56.0397 5.94531 56.7051H13.873C14.4253 56.7051 14.873 57.1528 14.873 57.7051V59C14.873 59.5523 14.4253 60 13.873 60H1.39453C0.842246 60 0.394531 59.5523 0.394531 59V56.7051H1.65234C2.30859 56.541 2.63672 55.7253 2.63672 54.2578L2.56836 52.125H1.35352C0.801231 52.125 0.353516 51.6773 0.353516 51.125V49.8984C0.353516 49.3462 0.801231 48.8984 1.35352 48.8984H2.45898L2.36328 45.7949C2.36328 43.9538 2.92383 42.5 4.04492 41.4336C5.17513 40.3672 6.68359 39.834 8.57031 39.834C10.5026 39.834 12.0202 40.349 13.123 41.3789C14.2259 42.3997 14.7773 43.7852 14.7773 45.5352H10.8535C10.8535 44.7604 10.653 44.168 10.252 43.7578C9.86003 43.3477 9.29492 43.1426 8.55664 43.1426C7.95508 43.1426 7.45378 43.3659 7.05273 43.8125C6.66081 44.2591 6.46484 44.9199 6.46484 45.7949L6.58789 48.8984H9.8125C10.3648 48.8984 10.8125 49.3462 10.8125 49.8984V51.125C10.8125 51.6773 10.3648 52.125 9.8125 52.125H6.71094Z" fill="#C4C4C4"/>
</g>
<defs>
<clipPath id="clip0">
<rect width="1920" height="4008" fill="white" transform="translate(-830 -1904)"/>
</clipPath>
</defs>
</svg>
