<svg width="16" height="22" viewBox="0 0 16 22" fill="none" xmlns="http://www.w3.org/2000/svg">
<g clip-path="url(#clip0)">
<rect width="1920" height="4008" transform="translate(-830 -1869)" fill="white"/>
<rect x="-32.5" y="-106.5" width="315" height="377" rx="5.5" fill="white" stroke="#E7E7E7"/>
<path d="M11.2227 12.9453C11.2227 13.4976 10.7749 13.9453 10.2227 13.9453H6.64258C6.68815 15.2852 7.04362 16.2923 7.70898 16.9668C8.38346 17.6413 9.42708 17.9785 10.8398 17.9785C11.7969 17.9785 12.6628 17.8372 13.4375 17.5547L13.9297 20.8633C12.7995 21.1276 11.6328 21.2598 10.4297 21.2598C8.03255 21.2598 6.13216 20.6172 4.72852 19.332C3.33398 18.0378 2.60026 16.2422 2.52734 13.9453H1.2168C0.664512 13.9453 0.216797 13.4976 0.216797 12.9453V12.8672C0.216797 12.3149 0.664512 11.8672 1.2168 11.8672H2.52734V10.1719H1.2168C0.664512 10.1719 0.216797 9.72416 0.216797 9.17188V9.09375C0.216797 8.54147 0.664512 8.09375 1.2168 8.09375H2.55469C2.70964 5.79688 3.50716 4.01497 4.94727 2.74805C6.39648 1.47201 8.3151 0.833984 10.7031 0.833984C11.6602 0.833984 12.7357 0.97526 13.9297 1.25781L13.4375 4.58008C12.5807 4.28841 11.7376 4.14258 10.9082 4.14258C8.32878 4.14258 6.91602 5.45964 6.66992 8.09375H10.2227C10.7749 8.09375 11.2227 8.54147 11.2227 9.09375V9.17188C11.2227 9.72416 10.7749 10.1719 10.2227 10.1719H6.64258V11.8672H10.2227C10.7749 11.8672 11.2227 12.3149 11.2227 12.8672V12.9453Z" fill="#C4C4C4"/>
<path d="M9.80078 52.7637C9.80078 52.0163 9.59115 51.4238 9.17188 50.9863C8.76172 50.5397 8.0599 50.1296 7.06641 49.7559C6.07292 49.3822 5.21615 49.013 4.49609 48.6484C3.77604 48.2747 3.15625 47.8509 2.63672 47.377C2.1263 46.8939 1.72526 46.3288 1.43359 45.6816C1.15104 45.0345 1.00977 44.2643 1.00977 43.3711C1.00977 41.8307 1.50195 40.5684 2.48633 39.584C3.4707 38.5996 4.77865 38.0254 6.41016 37.8613V35.9355C6.41016 35.3833 6.85787 34.9355 7.41016 34.9355H7.59766C8.14994 34.9355 8.59766 35.3833 8.59766 35.9355V37.9023C10.2109 38.1302 11.4733 38.8047 12.3848 39.9258C13.2962 41.0378 13.752 42.4824 13.752 44.2598H9.80078C9.80078 43.166 9.57292 42.3503 9.11719 41.8125C8.67057 41.2656 8.06901 40.9922 7.3125 40.9922C6.5651 40.9922 5.98633 41.2064 5.57617 41.6348C5.16602 42.054 4.96094 42.6374 4.96094 43.3848C4.96094 44.0775 5.16146 44.6335 5.5625 45.0527C5.96354 45.472 6.70638 45.9004 7.79102 46.3379C8.88477 46.7754 9.78255 47.1901 10.4844 47.582C11.1862 47.9648 11.7786 48.4023 12.2617 48.8945C12.7448 49.3776 13.1139 49.9336 13.3691 50.5625C13.6243 51.1823 13.752 51.9069 13.752 52.7363C13.752 54.2858 13.2689 55.5436 12.3027 56.5098C11.3366 57.4759 10.0059 58.0456 8.31055 58.2188V59.9395C8.31055 60.4917 7.86283 60.9395 7.31055 60.9395H7.13672C6.58443 60.9395 6.13672 60.4917 6.13672 59.9395V58.2324C4.26823 58.0319 2.81901 57.3711 1.78906 56.25C0.95691 55.3287 0.46393 54.1621 0.310123 52.7502C0.250313 52.2011 0.705528 51.752 1.25781 51.752H3.20898C3.76127 51.752 4.19301 52.204 4.29297 52.7472C4.40604 53.3615 4.63325 53.8638 4.97461 54.2539C5.49414 54.8281 6.23698 55.1152 7.20312 55.1152C8.00521 55.1152 8.63867 54.9056 9.10352 54.4863C9.56836 54.0579 9.80078 53.4837 9.80078 52.7637Z" fill="#C4C4C4"/>
<path d="M6.71094 87.125L6.79297 89.0254C6.79297 90.1465 6.51042 91.0397 5.94531 91.7051H13.873C14.4253 91.7051 14.873 92.1528 14.873 92.7051V94C14.873 94.5523 14.4253 95 13.873 95H1.39453C0.842246 95 0.394531 94.5523 0.394531 94V91.7051H1.65234C2.30859 91.541 2.63672 90.7253 2.63672 89.2578L2.56836 87.125H1.35352C0.801231 87.125 0.353516 86.6773 0.353516 86.125V84.8984C0.353516 84.3462 0.801231 83.8984 1.35352 83.8984H2.45898L2.36328 80.7949C2.36328 78.9538 2.92383 77.5 4.04492 76.4336C5.17513 75.3672 6.68359 74.834 8.57031 74.834C10.5026 74.834 12.0202 75.349 13.123 76.3789C14.2259 77.3997 14.7773 78.7852 14.7773 80.5352H10.8535C10.8535 79.7604 10.653 79.168 10.252 78.7578C9.86003 78.3477 9.29492 78.1426 8.55664 78.1426C7.95508 78.1426 7.45378 78.3659 7.05273 78.8125C6.66081 79.2591 6.46484 79.9199 6.46484 80.7949L6.58789 83.8984H9.8125C10.3648 83.8984 10.8125 84.3462 10.8125 84.8984V86.125C10.8125 86.6773 10.3648 87.125 9.8125 87.125H6.71094Z" fill="#C4C4C4"/>
</g>
<defs>
<clipPath id="clip0">
<rect width="1920" height="4008" fill="white" transform="translate(-830 -1869)"/>
</clipPath>
</defs>
</svg>
