<svg width="15" height="22" viewBox="0 0 15 22" fill="none" xmlns="http://www.w3.org/2000/svg">
<g clip-path="url(#clip0)">
<rect width="1920" height="4008" transform="translate(-830 -1943)" fill="white"/>
<rect x="-32.5" y="-180.5" width="315" height="377" rx="5.5" fill="white" stroke="#E7E7E7"/>
<path d="M11.2227 -61.0547C11.2227 -60.5024 10.7749 -60.0547 10.2227 -60.0547H6.64258C6.68815 -58.7148 7.04362 -57.7077 7.70898 -57.0332C8.38346 -56.3587 9.42708 -56.0215 10.8398 -56.0215C11.7969 -56.0215 12.6628 -56.1628 13.4375 -56.4453L13.9297 -53.1367C12.7995 -52.8724 11.6328 -52.7402 10.4297 -52.7402C8.03255 -52.7402 6.13216 -53.3828 4.72852 -54.668C3.33398 -55.9622 2.60026 -57.7578 2.52734 -60.0547H1.2168C0.664512 -60.0547 0.216797 -60.5024 0.216797 -61.0547V-61.1328C0.216797 -61.6851 0.664512 -62.1328 1.2168 -62.1328H2.52734V-63.8281H1.2168C0.664512 -63.8281 0.216797 -64.2758 0.216797 -64.8281V-64.9062C0.216797 -65.4585 0.664512 -65.9062 1.2168 -65.9062H2.55469C2.70964 -68.2031 3.50716 -69.985 4.94727 -71.252C6.39648 -72.528 8.3151 -73.166 10.7031 -73.166C11.6602 -73.166 12.7357 -73.0247 13.9297 -72.7422L13.4375 -69.4199C12.5807 -69.7116 11.7376 -69.8574 10.9082 -69.8574C8.32878 -69.8574 6.91602 -68.5404 6.66992 -65.9062H10.2227C10.7749 -65.9062 11.2227 -65.4585 11.2227 -64.9062V-64.8281C11.2227 -64.2758 10.7749 -63.8281 10.2227 -63.8281H6.64258V-62.1328H10.2227C10.7749 -62.1328 11.2227 -61.6851 11.2227 -61.1328V-61.0547Z" fill="#C4C4C4"/>
<path d="M9.80078 -21.2363C9.80078 -21.9837 9.59115 -22.5762 9.17188 -23.0137C8.76172 -23.4603 8.0599 -23.8704 7.06641 -24.2441C6.07292 -24.6178 5.21615 -24.987 4.49609 -25.3516C3.77604 -25.7253 3.15625 -26.1491 2.63672 -26.623C2.1263 -27.1061 1.72526 -27.6712 1.43359 -28.3184C1.15104 -28.9655 1.00977 -29.7357 1.00977 -30.6289C1.00977 -32.1693 1.50195 -33.4316 2.48633 -34.416C3.4707 -35.4004 4.77865 -35.9746 6.41016 -36.1387V-38.0645C6.41016 -38.6167 6.85787 -39.0645 7.41016 -39.0645H7.59766C8.14994 -39.0645 8.59766 -38.6167 8.59766 -38.0645V-36.0977C10.2109 -35.8698 11.4733 -35.1953 12.3848 -34.0742C13.2962 -32.9622 13.752 -31.5176 13.752 -29.7402H9.80078C9.80078 -30.834 9.57292 -31.6497 9.11719 -32.1875C8.67057 -32.7344 8.06901 -33.0078 7.3125 -33.0078C6.5651 -33.0078 5.98633 -32.7936 5.57617 -32.3652C5.16602 -31.946 4.96094 -31.3626 4.96094 -30.6152C4.96094 -29.9225 5.16146 -29.3665 5.5625 -28.9473C5.96354 -28.528 6.70638 -28.0996 7.79102 -27.6621C8.88477 -27.2246 9.78255 -26.8099 10.4844 -26.418C11.1862 -26.0352 11.7786 -25.5977 12.2617 -25.1055C12.7448 -24.6224 13.1139 -24.0664 13.3691 -23.4375C13.6243 -22.8177 13.752 -22.0931 13.752 -21.2637C13.752 -19.7142 13.2689 -18.4564 12.3027 -17.4902C11.3366 -16.5241 10.0059 -15.9544 8.31055 -15.7812V-14.0605C8.31055 -13.5083 7.86283 -13.0605 7.31055 -13.0605H7.13672C6.58443 -13.0605 6.13672 -13.5083 6.13672 -14.0605V-15.7676C4.26823 -15.9681 2.81901 -16.6289 1.78906 -17.75C0.95691 -18.6713 0.46393 -19.8379 0.310123 -21.2498C0.250313 -21.7989 0.705528 -22.248 1.25781 -22.248H3.20898C3.76127 -22.248 4.19301 -21.796 4.29297 -21.2528C4.40604 -20.6385 4.63325 -20.1362 4.97461 -19.7461C5.49414 -19.1719 6.23698 -18.8848 7.20312 -18.8848C8.00521 -18.8848 8.63867 -19.0944 9.10352 -19.5137C9.56836 -19.9421 9.80078 -20.5163 9.80078 -21.2363Z" fill="#C4C4C4"/>
<path d="M6.71094 13.125L6.79297 15.0254C6.79297 16.1465 6.51042 17.0397 5.94531 17.7051H13.873C14.4253 17.7051 14.873 18.1528 14.873 18.7051V20C14.873 20.5523 14.4253 21 13.873 21H1.39453C0.842246 21 0.394531 20.5523 0.394531 20V17.7051H1.65234C2.30859 17.541 2.63672 16.7253 2.63672 15.2578L2.56836 13.125H1.35352C0.801231 13.125 0.353516 12.6773 0.353516 12.125V10.8984C0.353516 10.3462 0.801231 9.89844 1.35352 9.89844H2.45898L2.36328 6.79492C2.36328 4.95377 2.92383 3.5 4.04492 2.43359C5.17513 1.36719 6.68359 0.833984 8.57031 0.833984C10.5026 0.833984 12.0202 1.34896 13.123 2.37891C14.2259 3.39974 14.7773 4.78516 14.7773 6.53516H10.8535C10.8535 5.76041 10.653 5.16797 10.252 4.75781C9.86003 4.34766 9.29492 4.14258 8.55664 4.14258C7.95508 4.14258 7.45378 4.36588 7.05273 4.8125C6.66081 5.25912 6.46484 5.91992 6.46484 6.79492L6.58789 9.89844H9.8125C10.3648 9.89844 10.8125 10.3462 10.8125 10.8984V12.125C10.8125 12.6773 10.3648 13.125 9.8125 13.125H6.71094Z" fill="#C4C4C4"/>
</g>
<defs>
<clipPath id="clip0">
<rect width="1920" height="4008" fill="white" transform="translate(-830 -1943)"/>
</clipPath>
</defs>
</svg>
