<svg width="30" height="27" viewBox="0 0 30 27" fill="none" xmlns="http://www.w3.org/2000/svg">
<path fill-rule="evenodd" clip-rule="evenodd" d="M12.1262 5.26784C12.5337 6.16296 14.9541 6.13646 15.6706 5.37759C15.9187 5.11479 16.1117 4.69848 16.3106 4.26943L16.3106 4.26941C16.6706 3.49274 17.0499 2.67431 17.8108 2.6491C17.9365 2.85589 17.8677 2.97067 17.7426 3.17962C17.6124 3.39706 17.4211 3.71646 17.3243 4.34763C16.7737 7.93775 21.668 9.97834 23.6562 6.48962C24.2339 5.47592 24.197 4.07521 23.565 3.06439C23.536 3.01797 23.5124 2.98354 23.494 2.95667C23.4614 2.90911 23.445 2.88521 23.4433 2.8603C23.4416 2.83513 23.4549 2.80894 23.4816 2.75627C23.4934 2.73284 23.508 2.70416 23.525 2.66799C24.2 2.54916 24.6602 3.48268 25.0677 4.30947C25.2772 4.73448 25.4728 5.13129 25.6765 5.34244C26.6007 6.30037 28.8184 6.03819 29.2319 5.27024C27.2222 5.42882 27.1429 4.18819 27.0554 2.81934C27.0188 2.24813 26.9809 1.6546 26.8006 1.13109C26.0367 -1.08806 23.8052 0.502753 23.1855 1.89788L22.6674 2.04989C21.3767 1.26875 20.0246 1.09969 18.728 2.04272L18.1923 1.8942C17.4798 0.596486 15.4045 -1.16861 14.5751 1.07343C14.3822 1.59482 14.3426 2.20606 14.3042 2.79876C14.2146 4.18103 14.1316 5.46242 12.1262 5.26784ZM3.78144 25.1933C3.88912 26.7858 6.69482 26.8828 6.69916 25.0545C6.76103 24.2389 6.74557 22.8005 6.73348 21.6748V21.6747C6.72798 21.1628 6.72317 20.7156 6.72664 20.4209L8.34318 20.4228C8.36015 20.7397 8.35658 21.3824 8.35257 22.1027C8.34565 23.3485 8.33744 24.8266 8.43196 25.2546C8.75128 26.7214 11.3828 26.7294 11.4148 25.2893C11.4155 25.0489 11.4078 24.1093 11.3978 22.8964V22.8962C11.3765 20.3074 11.3451 16.4732 11.3633 15.5332C11.5967 15.8217 12.1196 16.6938 12.3573 17.0903L12.3573 17.0904L12.4025 17.1657C12.9009 17.9957 13.0918 18.1578 14.069 18.1362L14.1558 18.1343C15.123 18.1137 15.2417 18.1111 15.7888 17.2223C15.8202 17.1712 15.8618 17.1031 15.9105 17.0233L15.9105 17.0233C16.1867 16.5707 16.6915 15.7437 16.868 15.5334C16.9097 16.1338 16.1389 19.5864 15.9085 20.5957C15.7124 21.4502 16.5161 21.5862 16.7234 21.4523C16.8253 21.3876 16.8766 21.3406 16.8766 21.3406C16.8733 21.5442 16.8754 21.8112 16.8777 22.0912V22.0914C16.8792 22.2787 16.8807 22.4718 16.8807 22.6556C16.8807 22.8748 16.8751 23.0991 16.8696 23.3237L16.8695 23.3238C16.8347 24.7274 16.7997 26.1386 18.1215 26.3362C19.0537 26.4755 19.8235 25.8024 19.8548 24.8663C19.8674 24.4873 19.8553 24.045 19.8429 23.5932C19.8236 22.8873 19.8036 22.1579 19.8766 21.6097C20.5156 21.571 20.9954 21.576 21.4848 21.6165C21.4865 21.8873 21.4862 22.179 21.486 22.4787C21.4853 23.3632 21.4846 24.3178 21.5314 25.0128C21.5633 25.6855 22.1847 26.23 22.7159 26.33C24.0538 26.5169 24.4992 25.5485 24.488 24.9371C24.4869 24.8742 24.4869 24.7571 24.487 24.5703V24.5697C24.4871 24.2159 24.4874 23.6125 24.4799 22.6556C24.4799 22.532 24.4782 22.3971 24.4765 22.2593L24.4765 22.259V22.259C24.4727 21.9452 24.4687 21.6164 24.4835 21.3726C24.4835 21.3726 24.514 21.4112 24.636 21.5238C24.9534 21.8209 25.6596 21.5611 25.519 20.9012C25.3647 20.177 25.0786 18.8138 24.9882 18.3807C24.9558 18.2254 24.9116 18.0339 24.8627 17.8224L24.8627 17.8224C24.6847 17.0516 24.4455 16.0157 24.493 15.501C24.7073 15.8267 24.9 16.1554 25.0954 16.4888L25.0954 16.4888L25.0955 16.4891C25.1661 16.6094 25.237 16.7303 25.3094 16.8519L25.3303 16.8872C25.6065 17.3514 25.8982 17.8418 26.344 18.0446C27.6102 18.5819 28.7532 17.2234 27.9866 15.9462C26.8801 14.1028 25.7517 12.2346 24.6162 10.4105C24.5459 10.2975 24.4818 10.1932 24.4227 10.0969C24.0962 9.56513 23.9185 9.27552 23.6601 9.11811C23.3511 8.92984 22.9269 8.93068 21.9953 8.93253C21.8972 8.93272 21.7934 8.93293 21.6836 8.93293C21.0558 8.93293 20.5289 8.92465 20.0827 8.91764C18.7231 8.89629 18.1121 8.8867 17.6773 9.15872C17.3225 9.3807 17.085 9.79023 16.6537 10.534C16.4383 10.9054 16.1745 11.3602 15.8237 11.9167C15.6737 12.1545 15.4848 12.485 15.2823 12.8392L15.2823 12.8392L15.2823 12.8392C14.8867 13.531 14.4394 14.3135 14.1295 14.6733C13.971 14.5487 13.2803 13.383 12.8116 12.592C12.6355 12.2947 12.4907 12.0503 12.4173 11.9341C12.3285 11.7934 12.1848 11.5411 12.0169 11.2463C11.5922 10.5007 11.0125 9.48299 10.7751 9.31189C10.245 8.92988 9.4999 8.93144 8.86162 8.93277L8.75104 8.93293H6.57547C6.35459 8.93293 6.15882 8.93012 5.98382 8.92761C4.61972 8.90807 4.51787 8.90661 3.62628 10.3927C2.51448 12.2459 1.38596 14.0941 0.261003 15.9353C-0.507793 17.1935 0.544447 18.5201 1.82257 18.0751C2.33934 17.8952 2.7213 17.1959 3.07671 16.5453C3.29784 16.1404 3.5087 15.7544 3.73535 15.524C3.80481 16.6882 3.78298 18.6666 3.76363 20.4208C3.75533 21.1729 3.74749 21.8837 3.74749 22.4714L3.74576 22.6454C3.73538 23.6794 3.72995 24.2199 3.78144 25.1933ZM4.22306 5.46565C3.88786 3.52415 5.1228 1.83887 6.96014 1.46566C8.83336 1.08515 10.5193 2.4131 10.8834 4.22505C11.2633 6.11539 9.94975 7.88532 8.16803 8.23774C6.31287 8.60469 4.53815 7.2903 4.22306 5.46565Z" fill="#C4C4C4"/>
</svg>
