<svg width="18" height="32" viewBox="0 0 18 32" fill="none" xmlns="http://www.w3.org/2000/svg">
<path d="M16.6954 30.5818L14.3091 16.0654C14.3091 16.0654 13.9115 14.6735 15.3034 14.4746C16.6954 14.2757 16.8943 15.8666 16.8943 15.8666" stroke="#C4C4C4" stroke-linecap="round" stroke-linejoin="round"/>
<path fill-rule="evenodd" clip-rule="evenodd" d="M15.5023 3.33877C15.5023 4.76648 14.3449 5.92387 12.9172 5.92387C11.4895 5.92387 10.3321 4.76648 10.3321 3.33877C10.3321 1.91105 11.4895 0.753662 12.9172 0.753662C14.3449 0.753662 15.5023 1.91105 15.5023 3.33877ZM9.13888 15.6678C9.13888 16.4195 8.87819 17.1103 8.44227 17.6548L10.5309 22.4288C10.8383 23.0435 11.0277 24.8236 11.253 26.9406C11.3192 27.5629 11.3886 28.2143 11.4649 28.8738C11.5654 29.742 11.632 30.5822 10.3779 30.9223C9.34798 31.0303 8.80768 30.2435 8.73765 29.357L8.07834 24.4164C7.99058 23.7587 7.79434 23.1202 7.49762 22.5267L5.91751 19.3665L5.55957 23.4231C5.41169 24.8092 4.74789 26.2213 3.86792 28.0933L3.8679 28.0933C3.64828 28.5605 3.41521 29.0563 3.17332 29.5876C2.81114 30.383 2.4344 31.1369 1.18475 30.7807C0.247009 30.3415 0.190475 29.3887 0.58822 28.5933L2.43291 23.8977C2.66001 23.3197 2.79597 22.7099 2.83596 22.0901L3.15321 17.1726C2.91226 16.7246 2.77555 16.2121 2.77555 15.6678C2.77555 15.5233 2.78518 15.3811 2.80383 15.2417C2.5547 15.6183 2.1274 15.8666 1.6421 15.8666C0.873332 15.8666 0.250122 15.2434 0.250122 14.4746C0.250122 14.2361 0.310137 14.0115 0.415892 13.8153L2.34751 9.24964C2.49715 8.89595 2.74546 8.59281 3.06277 8.37647L6.9478 5.72758C7.44695 5.35144 8.06803 5.12844 8.7412 5.12844C9.99399 5.12844 11.0664 5.90079 11.5082 6.9953L13.7126 10.8953L15.7011 12.685C15.7011 12.685 16.9605 13.8384 16.0988 14.8724C15.2372 15.9064 13.9114 14.6735 13.9114 14.6735L11.5252 12.685L10.4083 10.8235C9.3927 11.9137 9.00552 13.3265 9.10523 15.2034C9.1274 15.3549 9.13888 15.51 9.13888 15.6677V15.6678Z" fill="#C4C4C4"/>
</svg>
