<svg width="27" height="24" viewBox="0 0 27 24" fill="none" xmlns="http://www.w3.org/2000/svg">
<path d="M4 15C2.12967 15.8475 1 16.9483 1 18.1514C1 20.8292 6.59644 23 13.5 23C20.4036 23 26 20.8292 26 18.1514C26 16.9483 24.8703 15.8475 23 15" stroke="#C4C4C4" stroke-width="2" stroke-linecap="round" stroke-linejoin="round"/>
<path d="M16.8594 14.293C16.8594 14.8453 16.4117 15.293 15.8594 15.293H13.0859V17C13.0859 17.5523 12.6382 18 12.0859 18H11.1328C10.5805 18 10.1328 17.5523 10.1328 17V15.293H8.73047C8.17818 15.293 7.73047 14.8453 7.73047 14.293V13.9141C7.73047 13.3618 8.17818 12.9141 8.73047 12.9141H10.1328V11.6602H8.73047C8.17818 11.6602 7.73047 11.2124 7.73047 10.6602V10.2812C7.73047 9.72896 8.17818 9.28125 8.73047 9.28125H10.1328V1.9375C10.1328 1.38522 10.5805 0.9375 11.1328 0.9375H16.6602C18.543 0.9375 20.0469 1.42969 21.1719 2.41406C22.2969 3.39062 22.8594 4.69141 22.8594 6.31641C22.8594 7.97266 22.3242 9.27344 21.2539 10.2188C20.1836 11.1562 18.6953 11.6367 16.7891 11.6602H13.0859V12.9141H15.8594C16.4117 12.9141 16.8594 13.3618 16.8594 13.9141V14.293ZM13.0859 9.28125H16.6133C17.6758 9.28125 18.4883 9.03516 19.0508 8.54297C19.6133 8.05078 19.8945 7.31641 19.8945 6.33984C19.8945 5.46484 19.6172 4.75 19.0625 4.19531C18.5156 3.64062 17.7578 3.35156 16.7891 3.32812H13.0859V9.28125Z" fill="#C4C4C4"/>
</svg>
